<svg id="283b2038-77e0-40a1-9aac-ba726b3dbc4a" data-name="verify" xmlns="http://www.w3.org/2000/svg" viewBox="0 0 720.3 265.31">
  <defs>
    <style>
      .a8af7dba-fc95-4393-8a22-8744a18d3a01 {
        fill: #6a79a8;
      }

      .c6749f7e-0f7c-4301-ba3b-deb8bae9ef83 {
        fill: #e5e5e5;
      }

      .f5b62b88-4e50-4b4d-9b3e-2409d6ff69d4 {
        fill: #f2f2f2;
      }

      .\38 b7e46c9-1252-47f5-bc17-f4757635ff8b {
        fill: #fff;
      }

      .\31 3c4d16b-cf9c-43ea-bb5a-6576ab32e3ee {
        fill: #e3e3e3;
      }

      .\38 6d2a195-21e7-4d6c-9a93-d3d027229a6a {
        fill: #96e296;
      }

      .\37 5386b63-d686-4dc5-b4f0-76032e8339af {
        fill: #07a0dd;
        opacity: 0.5;
      }
    </style>
  </defs>
  <title>verified</title>
  <g>
    <g id="4faf0371-fdcf-4b2f-8667-1c8872bbc16d" data-name="&lt;Group&gt;">
      <g id="be325c5b-26f3-410a-afda-df61dab9d6bc" data-name="&lt;Group&gt;">
        <g id="92aee866-2084-4da7-9266-c65b93af4682" data-name="&lt;Group&gt;">
          <g id="00a3e39c-6da7-46ba-aa87-62a080367c5d" data-name="&lt;Group&gt;">
            <g id="952b9473-0559-4d46-b6f6-f0401a6221f1" data-name="&lt;Group&gt;">
              <path class="a8af7dba-fc95-4393-8a22-8744a18d3a01" d="M572.9,261.91c-3.88-24.14-8.36-48.26-15.49-71.68a265.56,265.56,0,0,0-12.71-33.79c-4.68-10.16-9.94-20.13-17.78-28.22-.81-.83-4.44.56-3.61,1.42,8.35,8.62,13.79,19.43,18.65,30.3A271.1,271.1,0,0,1,554.06,193c6.83,22.88,11.18,46.4,15,69.94.17,1.05,4.06.18,3.86-1Z"/>
            </g>
          </g>
          <g id="93e0df0b-0c8f-48db-ae4e-6f58dc13360e" data-name="&lt;Group&gt;">
            <g id="e627278b-0be9-44f7-ac90-a43f3d869d99" data-name="&lt;Group&gt;">
              <path class="a8af7dba-fc95-4393-8a22-8744a18d3a01" d="M463.91,124.06c-7,10.24-13.6,20.5-19.07,31.64-.9,1.83,3,1.61,3.65.27,5.47-11.14,12.09-21.39,19.07-31.64,1.1-1.61-2.82-1.48-3.65-.27Z"/>
            </g>
          </g>
          <g id="02fd9263-60c9-4b4c-9c1b-9880b13c1009" data-name="&lt;Group&gt;">
            <g id="970359a4-ebe7-4fbb-9a63-6799cdf87ea7" data-name="&lt;Group&gt;">
              <path class="a8af7dba-fc95-4393-8a22-8744a18d3a01" d="M419.06,260.43c5.9-33,13.42-66.1,26.31-97.11.87-2.1-3-2.22-3.72-.53-13,31.24-20.58,64.67-26.52,97.88-.36,2,3.6,1.59,3.93-.25Z"/>
            </g>
          </g>
          <g id="d72415ed-2c60-4c24-9a60-0778442d806a" data-name="&lt;Group&gt;">
            <path class="c6749f7e-0f7c-4301-ba3b-deb8bae9ef83" d="M526.59,146.3a49.55,49.55,0,0,1-15.3,13.56,70.2,70.2,0,0,1-7.71,3.93l-6.71-11c-.42-.7-2-1.48-2.75-.84s-5.56,7.57-7.22,9.26c-1,1-1.47,2-2.94,1.41a11.3,11.3,0,0,1-2.48-2q-10-7.93-20-15.83c-2.15-1.7-7.27,1.42-4.53,3.58l25.21,19.94c1.35,1.07,3.75.42,4.75-.84l6.69-8.48,3.46,5.69c1.75,2.87,2.47,4.71,6.12,3.76,11.13-2.88,21.41-11.17,28.39-20.21C533.9,145.16,528.32,144,526.59,146.3Z"/>
          </g>
          <g id="7ab24ef2-f235-4cbb-92f8-fd9d5c6e856f" data-name="&lt;Group&gt;">
            <g id="753f7a3f-78fe-4fa1-baf8-4775c63e59f3" data-name="&lt;Group&gt;">
              <path class="a8af7dba-fc95-4393-8a22-8744a18d3a01" d="M526.8,144.26a50.25,50.25,0,0,1-14,13.22c-3.11,1.88-7.47,2.85-10.34,5,1.2-.9,1.56,1.28.51-1.16a43.24,43.24,0,0,0-2.7-4.56l-3.66-6.19c-.62-1-3.13-.19-3.71.56l-9.48,12.37,3.58-.76-24.49-19.94c-.93-.76-4.46.73-3.61,1.42l24.49,19.94c.84.68,3,0,3.58-.76L496.45,151l-3.71.56L500.06,164a1.17,1.17,0,0,0,1.14.43c3.63-.07,8-2.89,11.15-4.54a53.19,53.19,0,0,0,18-15.7c.91-1.21-2.89-.79-3.55.09Z"/>
            </g>
          </g>
          <g id="b3ac9245-8500-4a51-9ca9-0b17ee7d73b5" data-name="&lt;Group&gt;">
            <g id="7dca434a-f92f-4192-bead-f14d39dcd84c" data-name="&lt;Group&gt;">
              <g id="28a37f82-5a61-43ca-9efa-01af4660d654" data-name="&lt;Group&gt;">
                <path class="f5b62b88-4e50-4b4d-9b3e-2409d6ff69d4" d="M508.46,184.71c.56,1.1,2.54,1,3.54,1.09,1.61.16,3.23.27,4.84.29,3.09,0,6.29-1.06,9.33-.85a6.73,6.73,0,0,0,3.28-.94c.83-.52.52-1.43-.47-1.4a19.59,19.59,0,0,0-2.46.26,36.22,36.22,0,0,1-4.76.61,50.33,50.33,0,0,1-9.18-.82,6.83,6.83,0,0,0-3.45.47c-.55.21-.9.25-.8.87A1.38,1.38,0,0,0,508.46,184.71Z"/>
              </g>
            </g>
            <g id="e969654b-7ec2-40ba-ad30-f27c409d407c" data-name="&lt;Group&gt;">
              <g id="2bbca98e-d9d7-4c01-b19e-4361765af80b" data-name="&lt;Group&gt;">
                <path class="a8af7dba-fc95-4393-8a22-8744a18d3a01" d="M508.07,184.18a71.17,71.17,0,0,0,10.12.86c3.08,0,7.35-1,9.7-.86,1.83.12,4-2.56,1.36-2.72-3.06-.2-6.13.77-9.19.85a61.29,61.29,0,0,1-10.63-.85c-1.85-.28-4,2.33-1.36,2.72Z"/>
              </g>
            </g>
            <g id="e3f028f3-eee1-455f-8722-63689bf7f074" data-name="&lt;Group&gt;">
              <circle class="a8af7dba-fc95-4393-8a22-8744a18d3a01" cx="518.67" cy="191.47" r="2.62"/>
            </g>
          </g>
        </g>
      </g>
      <g id="542c92b0-2400-4f93-8ba5-d495e941fee6" data-name="&lt;Group&gt;">
        <path class="8b7e46c9-1252-47f5-bc17-f4757635ff8b" d="M527.07,74.67c.56-33.61-13.78-61.11-32-61.42S461.52,39.94,461,73.56l-.1,6c-.31,18.64,1.05,31.65,3.68,40.73,2,7,6.63,13,12.17,17.62a57.74,57.74,0,0,0,13.21,8.26,5.27,5.27,0,0,0,4.14.22q1.31-.5,2.59-1.06a67.72,67.72,0,0,0,7.17-3.61c5.84-3.4,11.38-7.79,15-13.58a26.24,26.24,0,0,0,2.38-4.8c3.35-9,5.43-22.55,5.77-42.69Z"/>
      </g>
      <g id="1c3929eb-4d4a-4360-b39d-9335ff7ffef1" data-name="&lt;Group&gt;">
        <g id="0aee9336-2f97-4510-8e45-0a9c07513b53" data-name="&lt;Group&gt;">
          <path class="a8af7dba-fc95-4393-8a22-8744a18d3a01" d="M529,74.51c.12-12.93-1.55-26.06-6.46-38.09-3.46-8.49-8.73-17.24-17-21.79-16.81-9.26-31.9,6.29-38.47,20.6C461.84,46.69,459.46,59.44,459,72c-.39,12-.44,24.15,1.06,36.08,1.45,11.59,4.76,21.65,13.66,29.7,4.36,3.94,10.53,8.85,16.41,10.16,4.61,1,10-2.52,13.79-4.67,11.38-6.44,18.56-15.22,21.52-28,3.1-13.34,3.31-27.17,3.54-40.79,0-2-3.88-1.38-3.91.31-.17,10.31-.39,20.62-1.76,30.85-1.28,9.56-3.18,19.63-10,26.92a49.75,49.75,0,0,1-14.65,10.33c-3.78,1.85-6.31,2.82-10.43.66a55.76,55.76,0,0,1-8.74-5.65c-8.76-6.94-13.14-15.76-15-26.58-1.78-10.67-1.94-21.57-1.77-32.36.16-10.13.76-20.12,3.28-30,3.58-14,15.23-40.49,34.24-33.22,8.87,3.39,14.6,12.69,18.11,21,5,12,6.79,25.11,6.68,38C525.09,76.8,529,76.2,529,74.51Z"/>
        </g>
      </g>
      <g id="b67ed750-c8ec-4bfd-8fac-d691f7c8143e" data-name="&lt;Group&gt;">
        <g id="be21a1d4-de55-485b-a704-7195d97e0695" data-name="&lt;Group&gt;">
          <path class="a8af7dba-fc95-4393-8a22-8744a18d3a01" d="M444.2,156.81c-2.84.6-6,.85-8.2,2.91-3.56,3.3-5.13,8.91-7,13.22-5.42,12.56-14.32,23.39-23.6,33.31a236.22,236.22,0,0,1-31.64,28.18q-3.42,2.54-6.93,4.94c-1.85,1.27-3.59,2.78-6.12,2.5-1.09-.12-2.23-.93-3.31-1.21a13.26,13.26,0,0,0-11,2.29c-2.15,1.49,1.05,2.58,2.51,1.57,5.24-3.63,9.77,1.71,15.13-.33,4.39-1.67,8.49-5.43,12.22-8.2a245.13,245.13,0,0,0,27.81-24.09,168.14,168.14,0,0,0,22.75-27.67c3.22-5.05,5.45-10.37,7.89-15.81,1.05-2.34,2.23-5.85,4.29-7.52,1.5-1.21,4-1.3,5.82-1.69,2.41-.51,1.73-2.92-.65-2.42Z"/>
        </g>
      </g>
      <g id="803817c0-f392-44df-b412-9559efe107be" data-name="&lt;Group&gt;">
        <g id="80d25bb1-6e91-4bf7-80df-0980dcbaaa7b" data-name="&lt;Group&gt;">
          <g id="7d908f61-a6b3-4974-8d14-20b1f61bd5e6" data-name="&lt;Group&gt;">
            <circle class="8b7e46c9-1252-47f5-bc17-f4757635ff8b" cx="472.62" cy="71.14" r="11.02" transform="translate(394.44 542.64) rotate(-89.14)"/>
          </g>
          <g id="63cc7ee7-0d7a-463c-a03b-9c7ce659dc00" data-name="&lt;Group&gt;">
            <g id="2ebd2c7e-d639-430b-82eb-85e16b248f6d" data-name="&lt;Group&gt;">
              <path class="a8af7dba-fc95-4393-8a22-8744a18d3a01" d="M481.72,71.6A11.44,11.44,0,0,1,480.16,77c-1.9,3.14-6,5-9.61,3.72a10.61,10.61,0,0,1-7-10.14c.07-5.89,5.41-11.35,11.64-8.78,4.16,1.71,6.31,5.71,6.48,10,0,.93,3.91.24,3.86-1C485,54.92,460,56.2,459.67,71.38c-.34,16,24.85,14.6,25.88-.37C485.64,69.73,481.79,70.53,481.72,71.6Z"/>
            </g>
          </g>
        </g>
        <g id="6202f681-4242-4085-bf81-e0eb2e39f211" data-name="&lt;Group&gt;">
          <g id="eeedbcfb-30f8-424b-9b26-86f2e3ba0807" data-name="&lt;Group&gt;">
            <circle class="8b7e46c9-1252-47f5-bc17-f4757635ff8b" cx="505.14" cy="71.62" r="11.02" transform="translate(425.98 575.63) rotate(-89.14)"/>
          </g>
          <g id="8bedbcb3-ccb4-4f08-a8a7-c1509f20f960" data-name="&lt;Group&gt;">
            <g id="b796071c-a110-4db6-9209-0650ab385ba7" data-name="&lt;Group&gt;">
              <path class="a8af7dba-fc95-4393-8a22-8744a18d3a01" d="M514.2,71.94c-.35,5.14-4,10-9.75,9.24a10,10,0,0,1-8.38-9.89,9.09,9.09,0,0,1,8.8-9.26c5.41,0,9.13,4.86,9.33,9.9.08,2,4,1.35,3.91-.32-.63-16.21-25.57-16-25.95,0-.38,16.41,24.86,15.75,25.95,0C518.24,69.68,514.32,70.25,514.2,71.94Z"/>
            </g>
          </g>
        </g>
        <g id="7fd44244-d028-4312-9c65-f4991ae13917" data-name="&lt;Group&gt;">
          <g id="d1381323-8477-4ee8-bbb4-90133fe784bd" data-name="&lt;Group&gt;">
            <path class="a8af7dba-fc95-4393-8a22-8744a18d3a01" d="M517.19,70.78A17,17,0,0,1,526.08,69a4.41,4.41,0,0,1,3,1.19c.29.36,1,3,.14,3.25-2.3.57-1.87,2.24.45,1.67,3.58-.89,5.58-5.47,1.53-7.39-4.53-2.15-11.19-.2-15.43,1.71-2.47,1.11-.18,2.07,1.46,1.33Z"/>
          </g>
        </g>
        <g id="fd646369-61ab-4e73-a7c9-1ad008666fab" data-name="&lt;Group&gt;">
          <g id="28c27ac2-71ae-470c-b5ef-32aa84c348d4" data-name="&lt;Group&gt;">
            <path class="a8af7dba-fc95-4393-8a22-8744a18d3a01" d="M485.56,73.56c-.08-1.56.91-4.22,2.87-3.78a4.52,4.52,0,0,1,3.09,3.9c.17,1.28,4.06.4,3.86-1-1.08-8.08-14.08-5.74-13.68,2,.06,1.22,3.94.44,3.86-1Z"/>
          </g>
        </g>
      </g>
      <g id="a3872778-e872-4e1e-a0b2-9351de16b35c" data-name="&lt;Group&gt;">
        <g id="c7000090-48c4-4a58-88a4-ef48ee7bde0c" data-name="&lt;Group&gt;">
          <g id="50ed2813-024e-4e5a-88c7-c4b9b256bfeb" data-name="&lt;Group&gt;">
            <path class="a8af7dba-fc95-4393-8a22-8744a18d3a01" d="M542.56,159.77c16.73,14.66,15.68,36.93,3.79,54.37-12.58,18.45-32.78,28.45-54,33.37-2.38.55-1.76,2.82.61,2.28,21.94-5.08,42.79-15.39,56.16-34.11,12.9-18.06,14.76-42-3-57.51-1.15-1-4.79.53-3.56,1.6Z"/>
          </g>
        </g>
        <g id="62eafea2-1d27-4590-900c-c0fd6f2e6e01" data-name="&lt;Group&gt;">
          <g id="9fd23c1d-70a1-4d41-867f-89dec3357b4c" data-name="&lt;Group&gt;">
            <g id="7738d935-40f4-4339-9e73-19d4a2efeec4" data-name="&lt;Group&gt;">
              <path class="a8af7dba-fc95-4393-8a22-8744a18d3a01" d="M487.85,253.06l5.09-4c.68-.54.32-1.29-.4-1.5a3.22,3.22,0,0,0-2.73.73l-5.09,4c-.68.54-.32,1.29.4,1.5a3.22,3.22,0,0,0,2.73-.73Z"/>
            </g>
          </g>
          <g id="9cc3de6f-d796-4d8d-8cfc-a53b76d38fbe" data-name="&lt;Group&gt;">
            <g id="cd1f639a-547b-40eb-8ffa-1a3f012e341b" data-name="&lt;Group&gt;">
              <path class="a8af7dba-fc95-4393-8a22-8744a18d3a01" d="M484.32,251l4.24-.49c.88-.1,2-.62,2.11-1.63s-1-1.49-1.82-1.4l-4.24.49c-.88.1-2,.62-2.11,1.63s1,1.49,1.82,1.4Z"/>
            </g>
          </g>
        </g>
      </g>
      <g id="9c4828da-030a-465b-8434-4667e30f706b" data-name="&lt;Group&gt;">
        <g id="b532fabd-a10c-4877-89f1-4bc6e61e6b7b" data-name="&lt;Group&gt;">
          <path class="a8af7dba-fc95-4393-8a22-8744a18d3a01" d="M473.52,110.31c1.36,7,4.56,11.3,12.11,11,4.92-.2,11.7-1.89,13.43-7.08.25-.74-4.36-.28-4.75.9-1.64,4.93-8.06,5.62-11.93,2.72-2.77-2.08-3.41-5.64-4-8.82-.17-.88-5,.23-4.83,1.29Z"/>
        </g>
      </g>
    </g>
    <g id="4db480cb-d8ca-47a7-8fbe-cb50831d978b" data-name="&lt;Group&gt;">
      <g id="2e3038eb-ac42-41ad-a59d-00b3de7fbdc1" data-name="&lt;Group&gt;">
        <polygon class="8b7e46c9-1252-47f5-bc17-f4757635ff8b" points="516.15 263.36 394.9 263.36 394.9 251.5 516.15 254.85 516.15 263.36"/>
      </g>
      <g id="f5b29059-53e4-440a-b385-0e8f1218168b" data-name="&lt;Group&gt;">
        <g id="ef714343-592a-4485-8d74-80213b77f1e0" data-name="&lt;Group&gt;">
          <path class="a8af7dba-fc95-4393-8a22-8744a18d3a01" d="M516.92,262.32h-114c-2.13,0-4.85.46-6.94,0-.81-.18.89.45.9.42a24.26,24.26,0,0,0,0-3.88V251l-2.7,1.56L506,255.64c2.64.07,5.68.58,8.3.23,1.91-.26-.11.06-.11,0-.73,2.12,0,5.68,0,8,0,1.1,3.86.4,3.86-1v-8.51c0-.46-.9-.52-1.17-.53l-106.26-2.94-15-.41c-.89,0-2.7.43-2.7,1.56v11.86c0,.45.9.53,1.17.53H515.39C516.78,264.4,519.51,262.32,516.92,262.32Z"/>
        </g>
      </g>
    </g>
    <g id="ba231f05-9bc5-40d1-9831-ee44f52e0b9c" data-name="&lt;Group&gt;">
      <g id="1f495a87-5fb1-4f22-a770-9fce1e21a806" data-name="&lt;Group&gt;">
        <path class="a8af7dba-fc95-4393-8a22-8744a18d3a01" d="M271.22,208.74c-2.06,20.07,4.17,41,18.69,55.36.9.89,4.54-.54,3.6-1.47-14.25-14.07-20.46-34.7-18.44-54.41.15-1.43-3.73-.69-3.85.53Z"/>
      </g>
    </g>
    <g id="c2722ec7-f847-4b19-bdc9-cae525fb86a2" data-name="&lt;Group&gt;">
      <g id="182a237f-0be0-4295-bdbf-acd024a35568" data-name="&lt;Group&gt;">
        <path class="a8af7dba-fc95-4393-8a22-8744a18d3a01" d="M221.67,208.74c-1.16,18.76,1.45,39.11,11.5,55.36.62,1,4.38-.2,3.6-1.47-9.81-15.87-12.38-36.1-11.25-54.41.09-1.46-3.78-.68-3.85.53Z"/>
      </g>
    </g>
    <g id="dc6ecd5f-adab-48dc-bfc0-0208c78b68bf" data-name="&lt;Group&gt;">
      <g id="8f46a213-293e-4635-a694-7902f1b64b18" data-name="&lt;Group&gt;">
        <rect class="13c4d16b-cf9c-43ea-bb5a-6576ab32e3ee" x="118.85" y="5.67" width="261.18" height="202.81" rx="13.21" ry="13.21"/>
      </g>
      <g id="78a29010-ce81-4430-96bc-188c24328d5d" data-name="&lt;Group&gt;">
        <rect class="8b7e46c9-1252-47f5-bc17-f4757635ff8b" x="133.04" y="5.67" width="246.98" height="192.25" rx="13.21" ry="13.21"/>
      </g>
      <g id="58df89e2-09a3-44d1-8848-21d02f2d8603" data-name="&lt;Group&gt;">
        <g id="439088f4-d702-4774-8d10-e73801947733" data-name="&lt;Group&gt;">
          <path class="a8af7dba-fc95-4393-8a22-8744a18d3a01" d="M359.7,19c5.73.84,3.58,16.31,3.58,20.64q0,7.2,0,14.4,0,2.8,0,5.59V187c0,1.32,2.91.76,2.91-.31V58.49q0-4.34,0-8.68c0-7.61,0-15.23,0-22.84,0-4.51-.08-9-5.4-9.77-1.23-.18-3,1.52-1.08,1.81Z"/>
        </g>
      </g>
      <g id="67e85a28-ba4a-459e-9569-10eb73c30b46" data-name="&lt;Group&gt;">
        <g id="4b637c7f-b818-4c08-8d00-568a6f35596d" data-name="&lt;Group&gt;">
          <path class="a8af7dba-fc95-4393-8a22-8744a18d3a01" d="M367.55,207.34h-226c-2.73,0-5.48.09-8.21,0-7.5-.24-12.35-5.73-12.57-13-.92-29.92,0-60,0-90V47.53c0-9.53-.37-19.14,0-28.66.54-13.68,12.65-12.07,22.14-12.07H350.22c7.4,0,19.76-2.08,25,4.44,3.14,3.92,2.87,8.21,2.87,12.8V192.49c0,7.16-2.37,14.43-11,14.87-2,.1-3.17,2.37-.5,2.24,8.64-.44,15.26-6.6,15.4-15.37.06-3.87,0-7.74,0-11.61V24.33c0-3.18.35-6.84-.6-9.9-2.11-6.78-8.41-9.83-15-9.9-9.71-.1-19.42,0-29.12,0H218.12c-28,0-56.06-.29-84.09,0-6.19.06-12.24,2.26-15.4,8-2,3.64-1.72,7.56-1.72,11.53V182c0,10.68-1.95,25.95,12.84,27.56,7,.76,14.33.1,21.33.1h215C367.58,209.62,370.15,207.34,367.55,207.34Z"/>
        </g>
      </g>
    </g>
    <g id="ce3810bc-7ddf-4d23-8dad-71106fb4e663" data-name="&lt;Group&gt;">
      <g id="0e87d05d-1864-4883-ad51-2a8d8f64d1dd" data-name="&lt;Group&gt;">
        <path class="a8af7dba-fc95-4393-8a22-8744a18d3a01" d="M1.39,265.22H687.92c9.31,0,18.63.19,27.94,0h1.19c1.87,0,5.11-2.83,1.85-2.83H32.37c-9.31,0-18.63-.19-27.94,0H3.24c-1.87,0-5.11,2.83-1.85,2.83Z"/>
      </g>
    </g>
    <g id="907832f6-f0fa-4d7c-8a44-4b09984ee3c4" data-name="&lt;Group&gt;">
      <g id="d9ffec9b-fc00-497d-ba5d-bbbf6bf0b892" data-name="&lt;Group&gt;">
        <circle class="86d2a195-21e7-4d6c-9a93-d3d027229a6a" cx="242.69" cy="109.66" r="55.22"/>
      </g>
      <g id="70565e55-fa07-4a42-814c-9dd781d52542" data-name="&lt;Group&gt;">
        <g id="694ff00e-bd0f-472f-88a0-fcfea97763f7" data-name="&lt;Group&gt;">
          <path class="a8af7dba-fc95-4393-8a22-8744a18d3a01" d="M206.1,96.63c9.24,4.78,16.27,13.78,22.35,22a174.16,174.16,0,0,1,10.72,16.11c.77,1.32,4,.36,4.64-.68,7-10.57,14.45-20.85,22.17-30.89,6.34-8.24,12.92-16.32,20-23.91,5.77-6.15,12.06-12.65,19.65-16.55,2.87-1.47-1.49-1.89-2.92-1.16-7.24,3.71-13.3,9.6-18.92,15.38a294.58,294.58,0,0,0-20.9,24.48c-8.24,10.6-16.17,21.49-23.57,32.7l4.64-.68a179.62,179.62,0,0,0-11-16.62c-6.27-8.46-13.45-17.42-23-22.34-1.24-.64-5.7,1.24-3.89,2.17Z"/>
        </g>
      </g>
      <g id="0425c1ae-3b68-439a-a2a9-7d6b7df79aa2" data-name="&lt;Group&gt;">
        <g id="d8336b60-ed5f-45ed-810c-5aa661877a59" data-name="&lt;Group&gt;">
          <path class="a8af7dba-fc95-4393-8a22-8744a18d3a01" d="M295.49,110c-.22,17.71-8.54,34.6-23.29,44.67a51.92,51.92,0,0,1-52.37,3.21c-33-16.62-40-62.88-12.83-88.19,17-15.82,41.93-17.8,61.87-6.37,1.36.78,5.81-1.21,3.84-2.33a59.51,59.51,0,0,0-59.76.54,57.08,57.08,0,0,0-27.88,47.77A56.4,56.4,0,0,0,211.4,157.6c16.42,10.33,37.69,11.31,55.24,3.26a57.52,57.52,0,0,0,33.67-51.5c0-2-4.81-1-4.83.61Z"/>
        </g>
      </g>
    </g>
    <g id="24338c2d-50ed-4aaa-9859-8fcf1150b45d" data-name="&lt;Group&gt;">
      <g id="309690a4-e476-475b-93d5-6b7be92eddd4" data-name="&lt;Group&gt;">
        <path class="8b7e46c9-1252-47f5-bc17-f4757635ff8b" d="M374.69,262.36H330.82v-7.82l22.13-7.66a16.39,16.39,0,0,1,21.75,15.48Z"/>
      </g>
      <g id="46377386-74df-498c-8884-2ccfab548c0c" data-name="&lt;Group&gt;">
        <g id="964f9837-5935-42c1-ba54-36fcbc5227f6" data-name="&lt;Group&gt;">
          <path class="a8af7dba-fc95-4393-8a22-8744a18d3a01" d="M375.71,261.29H331.84l1.39.42v-7.82l-1.55,1.3,18.67-6.47c4.08-1.41,7.92-2.34,12.18-.55A16.15,16.15,0,0,1,372.28,263c0,.95,4.83.21,4.83-1.29,0-13.51-13.91-19.15-25.23-15.42-7.35,2.42-14.62,5.06-21.93,7.59-.54.19-1.55.6-1.55,1.3V263c0,.49,1.16.42,1.39.42h43.88C375.1,263.43,378.91,261.29,375.71,261.29Z"/>
        </g>
      </g>
    </g>
    <g id="e355bdbf-dce7-4788-8197-27883b72d7b5" data-name="&lt;Group&gt;">
      <g id="14156dc0-086a-46e5-b820-5da4a713e68b" data-name="&lt;Group&gt;">
        <g id="4f06d7df-ab22-4969-b53c-cfc2790cf674" data-name="&lt;Group&gt;">
          <path class="a8af7dba-fc95-4393-8a22-8744a18d3a01" d="M343.94,258.57c2.78,0,3.69-3.61.41-3.61-2.78,0-3.69,3.61-.41,3.61Z"/>
        </g>
      </g>
    </g>
    <ellipse id="eb6923a2-7e9c-4ebb-ad33-bfe24e35099f" data-name="&lt;Path&gt;" class="75386b63-d686-4dc5-b4f0-76032e8339af" cx="499.08" cy="21.19" rx="20.89" ry="43.14" transform="matrix(0.09, -1, 1, 0.09, 430.94, 516.06)"/>
  </g>
</svg>
